<mxfile host="app.diagrams.net" modified="2023-10-23T14:07:15.061Z" agent="Mozilla/5.0 (Windows NT 10.0; Win64; x64) AppleWebKit/537.36 (KHTML, like Gecko) Chrome/118.0.0.0 Safari/537.36" etag="ya7yn11VR-fWXmVKMUX-" version="22.0.6" type="github">
  <diagram name="Page-1" id="2GvujRs7p5wmBkLR6vHF">
    <mxGraphModel dx="989" dy="514" grid="1" gridSize="10" guides="1" tooltips="1" connect="1" arrows="1" fold="1" page="1" pageScale="1" pageWidth="827" pageHeight="1169" math="0" shadow="0">
      <root>
        <mxCell id="0" />
        <mxCell id="1" parent="0" />
        <mxCell id="kQmA0Dz6iTqkUMhZtsGz-7" value="Run = 1 Reset = 0&lt;br&gt;Output = 1" style="edgeStyle=orthogonalEdgeStyle;rounded=0;orthogonalLoop=1;jettySize=auto;html=1;exitX=1;exitY=0.5;exitDx=0;exitDy=0;entryX=0;entryY=0.5;entryDx=0;entryDy=0;" parent="1" source="kQmA0Dz6iTqkUMhZtsGz-1" target="kQmA0Dz6iTqkUMhZtsGz-3" edge="1">
          <mxGeometry relative="1" as="geometry" />
        </mxCell>
        <mxCell id="kQmA0Dz6iTqkUMhZtsGz-1" value="00" style="ellipse;whiteSpace=wrap;html=1;" parent="1" vertex="1">
          <mxGeometry x="160" y="160" width="80" height="80" as="geometry" />
        </mxCell>
        <mxCell id="kQmA0Dz6iTqkUMhZtsGz-8" value="Run = 1 Reset = 0&lt;br&gt;Output = 1&amp;nbsp;" style="edgeStyle=orthogonalEdgeStyle;rounded=0;orthogonalLoop=1;jettySize=auto;html=1;entryX=0.5;entryY=0;entryDx=0;entryDy=0;" parent="1" source="kQmA0Dz6iTqkUMhZtsGz-3" target="kQmA0Dz6iTqkUMhZtsGz-4" edge="1">
          <mxGeometry relative="1" as="geometry" />
        </mxCell>
        <mxCell id="kQmA0Dz6iTqkUMhZtsGz-3" value="01" style="ellipse;whiteSpace=wrap;html=1;" parent="1" vertex="1">
          <mxGeometry x="400" y="160" width="80" height="80" as="geometry" />
        </mxCell>
        <mxCell id="kQmA0Dz6iTqkUMhZtsGz-9" style="edgeStyle=orthogonalEdgeStyle;rounded=0;orthogonalLoop=1;jettySize=auto;html=1;exitX=0;exitY=0.5;exitDx=0;exitDy=0;entryX=1;entryY=0.5;entryDx=0;entryDy=0;" parent="1" source="kQmA0Dz6iTqkUMhZtsGz-4" target="kQmA0Dz6iTqkUMhZtsGz-5" edge="1">
          <mxGeometry relative="1" as="geometry" />
        </mxCell>
        <mxCell id="kQmA0Dz6iTqkUMhZtsGz-23" value="Run = 1 Reset = 0&lt;br&gt;Output = 1" style="edgeLabel;html=1;align=center;verticalAlign=middle;resizable=0;points=[];" parent="kQmA0Dz6iTqkUMhZtsGz-9" vertex="1" connectable="0">
          <mxGeometry x="-0.0472" y="1" relative="1" as="geometry">
            <mxPoint as="offset" />
          </mxGeometry>
        </mxCell>
        <mxCell id="kQmA0Dz6iTqkUMhZtsGz-4" value="10" style="ellipse;whiteSpace=wrap;html=1;" parent="1" vertex="1">
          <mxGeometry x="400" y="360" width="80" height="80" as="geometry" />
        </mxCell>
        <mxCell id="kQmA0Dz6iTqkUMhZtsGz-10" value="Run = 1 Reset = 0&lt;br&gt;Output = 0" style="edgeStyle=orthogonalEdgeStyle;rounded=0;orthogonalLoop=1;jettySize=auto;html=1;exitX=0.5;exitY=0;exitDx=0;exitDy=0;entryX=0.5;entryY=1;entryDx=0;entryDy=0;" parent="1" source="kQmA0Dz6iTqkUMhZtsGz-5" target="kQmA0Dz6iTqkUMhZtsGz-1" edge="1">
          <mxGeometry x="-0.3333" relative="1" as="geometry">
            <mxPoint as="offset" />
          </mxGeometry>
        </mxCell>
        <mxCell id="kQmA0Dz6iTqkUMhZtsGz-27" value="Run = X Reset = 1&lt;br&gt;Output = 0" style="edgeStyle=orthogonalEdgeStyle;orthogonalLoop=1;jettySize=auto;html=1;exitX=0;exitY=0;exitDx=0;exitDy=0;entryX=0;entryY=1;entryDx=0;entryDy=0;curved=1;" parent="1" source="kQmA0Dz6iTqkUMhZtsGz-5" target="kQmA0Dz6iTqkUMhZtsGz-1" edge="1">
          <mxGeometry x="0.29" relative="1" as="geometry">
            <Array as="points">
              <mxPoint x="140" y="372" />
              <mxPoint x="140" y="228" />
            </Array>
            <mxPoint as="offset" />
          </mxGeometry>
        </mxCell>
        <mxCell id="kQmA0Dz6iTqkUMhZtsGz-5" value="11" style="ellipse;whiteSpace=wrap;html=1;" parent="1" vertex="1">
          <mxGeometry x="160" y="360" width="80" height="80" as="geometry" />
        </mxCell>
        <mxCell id="kQmA0Dz6iTqkUMhZtsGz-20" value="Run = 0 Reset = 0&lt;br&gt;Output = 0" style="curved=1;endArrow=classic;html=1;rounded=0;exitX=0.5;exitY=0;exitDx=0;exitDy=0;" parent="1" edge="1">
          <mxGeometry y="-10" width="50" height="50" relative="1" as="geometry">
            <mxPoint x="200" y="160" as="sourcePoint" />
            <mxPoint x="200" y="160" as="targetPoint" />
            <Array as="points">
              <mxPoint x="240" y="120" />
              <mxPoint x="160" y="120" />
            </Array>
            <mxPoint as="offset" />
          </mxGeometry>
        </mxCell>
        <mxCell id="kQmA0Dz6iTqkUMhZtsGz-21" value="Run = X Reset = 1&lt;br&gt;Output = 0" style="curved=1;endArrow=classic;html=1;rounded=0;exitX=0;exitY=0;exitDx=0;exitDy=0;entryX=1;entryY=0;entryDx=0;entryDy=0;" parent="1" source="kQmA0Dz6iTqkUMhZtsGz-3" target="kQmA0Dz6iTqkUMhZtsGz-1" edge="1">
          <mxGeometry width="50" height="50" relative="1" as="geometry">
            <mxPoint x="350" y="280" as="sourcePoint" />
            <mxPoint x="400" y="230" as="targetPoint" />
            <Array as="points">
              <mxPoint x="400" y="120" />
              <mxPoint x="240" y="120" />
            </Array>
            <mxPoint as="offset" />
          </mxGeometry>
        </mxCell>
        <mxCell id="kQmA0Dz6iTqkUMhZtsGz-22" value="Run = 0 Reset = 0&lt;br&gt;Output = 0" style="curved=1;endArrow=classic;html=1;rounded=0;exitX=1;exitY=0;exitDx=0;exitDy=0;entryX=1;entryY=0;entryDx=0;entryDy=0;" parent="1" edge="1" target="kQmA0Dz6iTqkUMhZtsGz-3" source="kQmA0Dz6iTqkUMhZtsGz-3">
          <mxGeometry y="14" width="50" height="50" relative="1" as="geometry">
            <mxPoint x="440" y="160" as="sourcePoint" />
            <mxPoint x="440" y="160" as="targetPoint" />
            <Array as="points">
              <mxPoint x="460" y="120" />
              <mxPoint x="520" y="180" />
            </Array>
            <mxPoint as="offset" />
          </mxGeometry>
        </mxCell>
        <mxCell id="kQmA0Dz6iTqkUMhZtsGz-24" value="Run = 0 Reset = 0&lt;br&gt;Output = 0" style="curved=1;endArrow=classic;html=1;rounded=0;entryX=1;entryY=1;entryDx=0;entryDy=0;exitX=1;exitY=1;exitDx=0;exitDy=0;" parent="1" target="kQmA0Dz6iTqkUMhZtsGz-4" edge="1" source="kQmA0Dz6iTqkUMhZtsGz-4">
          <mxGeometry y="14" width="50" height="50" relative="1" as="geometry">
            <mxPoint x="480" y="400" as="sourcePoint" />
            <mxPoint x="520" y="410" as="targetPoint" />
            <Array as="points">
              <mxPoint x="520" y="420" />
              <mxPoint x="460" y="480" />
            </Array>
            <mxPoint as="offset" />
          </mxGeometry>
        </mxCell>
        <mxCell id="kQmA0Dz6iTqkUMhZtsGz-26" value="Run = X Reset = 1&lt;br&gt;Output = 0" style="curved=1;endArrow=classic;html=1;rounded=0;exitX=0;exitY=0;exitDx=0;exitDy=0;entryX=1;entryY=1;entryDx=0;entryDy=0;" parent="1" source="kQmA0Dz6iTqkUMhZtsGz-4" target="kQmA0Dz6iTqkUMhZtsGz-1" edge="1">
          <mxGeometry width="50" height="50" relative="1" as="geometry">
            <mxPoint x="280" y="280" as="sourcePoint" />
            <mxPoint x="330" y="230" as="targetPoint" />
            <Array as="points">
              <mxPoint x="360" y="300" />
              <mxPoint x="290" y="240" />
            </Array>
          </mxGeometry>
        </mxCell>
        <mxCell id="kQmA0Dz6iTqkUMhZtsGz-29" value="Run = 0 Reset = 0&lt;br&gt;Output = 0" style="curved=1;endArrow=classic;html=1;rounded=0;exitX=0;exitY=1;exitDx=0;exitDy=0;entryX=0;entryY=1;entryDx=0;entryDy=0;" parent="1" source="kQmA0Dz6iTqkUMhZtsGz-5" target="kQmA0Dz6iTqkUMhZtsGz-5" edge="1">
          <mxGeometry y="14" width="50" height="50" relative="1" as="geometry">
            <mxPoint x="280" y="300" as="sourcePoint" />
            <mxPoint x="330" y="250" as="targetPoint" />
            <Array as="points">
              <mxPoint x="180" y="480" />
              <mxPoint x="120" y="420" />
            </Array>
            <mxPoint as="offset" />
          </mxGeometry>
        </mxCell>
        <mxCell id="kQmA0Dz6iTqkUMhZtsGz-30" value="Run = X Reset = 1&lt;br&gt;Output = 0" style="curved=1;endArrow=classic;html=1;rounded=0;exitX=0;exitY=0.5;exitDx=0;exitDy=0;entryX=0;entryY=0.5;entryDx=0;entryDy=0;" parent="1" source="kQmA0Dz6iTqkUMhZtsGz-1" target="kQmA0Dz6iTqkUMhZtsGz-1" edge="1">
          <mxGeometry y="30" width="50" height="50" relative="1" as="geometry">
            <mxPoint x="280" y="300" as="sourcePoint" />
            <mxPoint x="330" y="250" as="targetPoint" />
            <Array as="points">
              <mxPoint x="120" y="240" />
              <mxPoint x="120" y="160" />
            </Array>
            <mxPoint as="offset" />
          </mxGeometry>
        </mxCell>
      </root>
    </mxGraphModel>
  </diagram>
</mxfile>
